<svg width="66" height="38" viewBox="0 0 66 38" fill="none" xmlns="http://www.w3.org/2000/svg">
<path d="M35.8146 11.7875C35.8146 11.7875 33.2339 21.4787 33.0181 22.5128L30.2035 11.7875H24.8779V26.6649H28.3646V15.7238L31.4152 26.6649H34.6299C34.6299 26.6649 37.6018 16.0677 37.676 15.7485V26.6649H41.1762V11.7875H35.8146Z" fill="white"/>
<path d="M19.4858 20.9859C19.4858 21.4265 19.4858 21.8626 19.279 22.301C18.8968 23.18 17.6334 24.0005 15.8417 24.0005C14.4322 24.0005 13.4611 23.416 13.4611 22.2718C13.4611 20.7251 14.9201 20.3767 16.1835 20.2171C17.7728 20.0215 19.4858 19.9631 19.4858 19.9631V20.9859ZM23.0107 24.2905V16.5371C23.0107 14.9567 22.9815 13.5809 21.246 12.5288C19.9556 11.7667 18.2516 11.5914 16.8376 11.5914C15.8979 11.5914 12.4045 11.5914 10.9905 14.1384C10.5341 14.9679 10.4667 15.5727 10.406 16.2808V16.2853L14.0186 16.2808C14.0231 15.9548 14.0681 15.6199 14.3715 15.2489C14.7267 14.7813 15.5158 14.3138 16.9882 14.3138C19.886 14.3138 19.4588 17.2227 19.4588 17.2227C19.4588 17.2227 18.0111 17.2407 14.929 17.6206C13.506 17.796 11.258 18.3512 10.1992 20.4576C9.9002 21.0466 9.72485 21.7188 9.72485 22.4471C9.72485 24.9649 11.7279 27.0151 15.0459 27.0151C17.0714 27.0151 18.6338 26.1654 19.3936 25.5224C19.3936 25.727 19.4543 26.3138 19.4858 26.6644H23.0737C23.0107 24.2905 23.0107 25.4033 23.0107 24.2905Z" fill="white"/>
<path d="M56.6571 20.8862L53.2379 20.8907C53.1322 21.3021 52.4196 23.9862 49.7557 23.9862C49.7197 23.9862 49.2948 23.9862 49.2498 23.984C47.2918 23.9233 45.689 22.3002 45.689 19.099C45.689 16.6419 46.9231 14.4343 49.2813 14.3781H49.7557C52.1925 14.3781 53.049 16.9184 53.1007 17.0735L56.5132 17.0848C55.8501 13.9128 53.3592 11.3231 49.5871 11.3231C45.3563 11.3231 42.3484 14.8008 42.3484 19.2047C42.3484 24.2425 45.5451 27.1042 49.4994 27.1042C53.9078 27.1042 56.1918 23.7479 56.6571 20.8862Z" fill="white"/>
<path d="M62.2866 34.6879H3.56126V4.12371H62.2866V34.6879ZM0.254395 37.8689H65.5351V0.944946H0.254395V37.8689Z" fill="white"/>
</svg>
