<svg width="11" height="18" viewBox="0 0 11 18" fill="none" xmlns="http://www.w3.org/2000/svg">
<path d="M10.748 4.95772C10.7466 4.95631 10.7452 4.95492 10.7438 4.9535L6.39224 0.596217C6.35766 0.561829 6.31946 0.531285 6.27832 0.505093L6.15302 0.436743L6.06758 0.408256H6.00492C5.90891 0.390608 5.81047 0.390608 5.71443 0.408256H5.65748H5.58913L5.49229 0.459518C5.43834 0.488833 5.38852 0.525224 5.34419 0.567729L0.975533 4.9535C0.682992 5.24372 0.681096 5.71616 0.971315 6.00871C0.972703 6.01012 0.974118 6.01151 0.975533 6.01292C1.27042 6.29428 1.73435 6.29428 2.02927 6.01292L4.63224 3.41564C4.74453 3.30553 4.92486 3.30729 5.03497 3.41962C5.0862 3.47187 5.11536 3.54182 5.11637 3.615L5.11637 17.149C5.11635 17.5611 5.45038 17.8952 5.86248 17.8952C6.27458 17.8953 6.60864 17.5612 6.60869 17.1491L6.60869 3.615C6.61091 3.45774 6.74018 3.33202 6.89744 3.33423C6.9706 3.33527 7.04057 3.3644 7.09282 3.41564L9.68442 6.01292C9.98006 6.29791 10.4482 6.29791 10.7438 6.01292C11.0364 5.72271 11.0383 5.25027 10.748 4.95772Z" fill="#B6B6B6"/>
</svg>
