<svg width="45" height="33" viewBox="0 0 45 33" fill="none" xmlns="http://www.w3.org/2000/svg">
<path d="M22.4035 23.9774C26.528 23.9774 29.8715 20.6339 29.8715 16.5094C29.8715 12.385 26.528 9.04144 22.4035 9.04144C18.2791 9.04144 14.9355 12.385 14.9355 16.5094C14.9355 20.6339 18.2791 23.9774 22.4035 23.9774Z" fill="white"/>
<path d="M13.9459 8.05194C14.0865 7.91453 14.1982 7.75053 14.2745 7.56936C14.3507 7.3882 14.39 7.19363 14.39 6.99708C14.39 6.80054 14.3507 6.60598 14.2745 6.42483C14.1982 6.24368 14.0865 6.07961 13.9459 5.94223C13.6659 5.66291 13.2866 5.50605 12.8911 5.50605C12.4956 5.50605 12.1163 5.66291 11.8363 5.94223C10.4747 7.30817 9.39052 8.92495 8.64369 10.7031C7.8673 12.5404 7.46729 14.5147 7.46729 16.5094C7.46729 18.5041 7.8673 20.4785 8.64369 22.3158C9.39052 24.0939 10.4747 25.7108 11.8363 27.0767C12.123 27.3507 12.5038 27.5044 12.9004 27.5061C13.2918 27.5055 13.6671 27.3512 13.9459 27.0767C14.0865 26.9392 14.1982 26.7752 14.2745 26.5941C14.3507 26.4129 14.39 26.2183 14.39 26.0219C14.39 25.8253 14.3507 25.6307 14.2745 25.4495C14.1982 25.2683 14.0865 25.1044 13.9459 24.9669C12.8604 23.8703 11.9925 22.5781 11.3882 21.1583C10.772 19.6859 10.4547 18.1056 10.4547 16.5094C10.4547 14.9132 10.772 13.333 11.3882 11.8606C11.9925 10.4408 12.8604 9.14854 13.9459 8.05194Z" fill="white"/>
<path d="M37.3395 16.5094C37.3464 14.5141 36.9461 12.5384 36.1633 10.7031C35.4165 8.92495 34.3325 7.30817 32.9707 5.94223C32.6908 5.66291 32.3115 5.50605 31.916 5.50605C31.5205 5.50605 31.1411 5.66291 30.861 5.94223C30.7205 6.07961 30.6088 6.24368 30.5326 6.42483C30.4563 6.60598 30.417 6.80054 30.417 6.99708C30.417 7.19363 30.4563 7.3882 30.5326 7.56936C30.6088 7.75053 30.7205 7.91453 30.861 8.05194C31.9467 9.14854 32.8147 10.4408 33.4188 11.8606C34.0351 13.333 34.3525 14.9132 34.3525 16.5094C34.3525 18.1056 34.0351 19.6859 33.4188 21.1583C32.8147 22.5781 31.9467 23.8703 30.861 24.9669C30.7205 25.1044 30.6088 25.2683 30.5326 25.4495C30.4563 25.6307 30.417 25.8253 30.417 26.0219C30.417 26.2183 30.4563 26.4129 30.5326 26.5941C30.6088 26.7752 30.7205 26.9392 30.861 27.0767C31.1399 27.3512 31.5154 27.5055 31.9066 27.5061C32.3033 27.5044 32.6841 27.3507 32.9707 27.0767C34.3325 25.7108 35.4165 24.0939 36.1633 22.3158C36.9461 20.4805 37.3464 18.5047 37.3395 16.5094Z" fill="white"/>
<path d="M4.51772 24.0708C3.50718 21.678 2.98654 19.1068 2.98654 16.5094C2.98654 13.9119 3.50718 11.3408 4.51772 8.94809C5.48414 6.63912 6.89929 4.54495 8.68113 2.787C8.9193 2.49679 9.04103 2.12838 9.02261 1.75341C9.00419 1.37844 8.84695 1.02371 8.58149 0.758256C8.31603 0.492784 7.9613 0.335553 7.58633 0.317137C7.21137 0.298721 6.84296 0.420449 6.55275 0.658618C4.5145 2.70927 2.88601 5.12983 1.75456 7.79055C0.596145 10.5515 -0.000488281 13.5154 -0.000488281 16.5094C-0.000488281 19.5035 0.596145 22.4674 1.75456 25.2283C2.88601 27.889 4.5145 30.3095 6.55275 32.3602C6.84149 32.6312 7.22106 32.7843 7.61694 32.7897C8.01355 32.788 8.39442 32.6343 8.68113 32.3602C8.9616 32.0771 9.11895 31.6946 9.11895 31.2961C9.11895 30.8976 8.9616 30.5151 8.68113 30.2319C6.89929 28.4739 5.48414 26.3797 4.51772 24.0708Z" fill="white"/>
<path d="M43.0526 7.79056C41.9212 5.12981 40.2927 2.70926 38.2544 0.658607C38.1206 0.495431 37.9539 0.362113 37.7654 0.26721C37.5769 0.172292 37.3705 0.117924 37.1596 0.107559C36.9489 0.0972081 36.7381 0.131113 36.5413 0.207077C36.3443 0.283056 36.1655 0.399408 36.0161 0.548678C35.8669 0.697934 35.7505 0.876792 35.6745 1.07374C35.5986 1.27068 35.5647 1.48136 35.575 1.69219C35.5854 1.90303 35.6397 2.10937 35.7347 2.29792C35.8296 2.48647 35.9629 2.65307 36.126 2.78699C37.9337 4.58546 39.3674 6.7239 40.3449 9.07908C41.3221 11.4342 41.8237 13.9596 41.8204 16.5094C41.8237 19.0593 41.3221 21.5847 40.3449 23.9398C39.3674 26.2949 37.9337 28.4334 36.126 30.2319C35.8457 30.5151 35.6883 30.8974 35.6883 31.2961C35.6883 31.6946 35.8457 32.0771 36.126 32.3603C36.4128 32.6343 36.7937 32.788 37.1902 32.7897C37.5862 32.7843 37.9657 32.631 38.2544 32.3603C40.2927 30.3095 41.9212 27.889 43.0526 25.2283C44.211 22.4674 44.8077 19.5035 44.8077 16.5094C44.8077 13.5154 44.211 10.5513 43.0526 7.79056Z" fill="white"/>
</svg>
