<svg width="27" height="27" viewBox="0 0 27 27" fill="none" xmlns="http://www.w3.org/2000/svg">
<path id="Vector" d="M20.7991 0.333313H6.35278C4.75696 0.335225 3.22704 0.970011 2.09862 2.09843C0.970195 3.22685 0.335408 4.75677 0.333496 6.3526V15.9835C0.335247 17.3706 0.815148 18.7146 1.69231 19.7892C2.56948 20.8637 3.79027 21.6029 5.14893 21.8824V25.6143C5.14889 25.8323 5.20803 26.0461 5.32002 26.2331C5.43202 26.4201 5.59267 26.5731 5.78485 26.676C5.97702 26.7788 6.1935 26.8275 6.41119 26.8169C6.62888 26.8064 6.83962 26.7369 7.02092 26.6159L13.9371 22.0027H20.7991C22.3949 22.0008 23.9248 21.366 25.0532 20.2376C26.1817 19.1092 26.8164 17.5793 26.8184 15.9835V6.3526C26.8164 4.75677 26.1817 3.22685 25.0532 2.09843C23.9248 0.970011 22.3949 0.335225 20.7991 0.333313ZM18.3914 14.7796H8.7605C8.44122 14.7796 8.13501 14.6528 7.90924 14.427C7.68348 14.2012 7.55664 13.895 7.55664 13.5757C7.55664 13.2565 7.68348 12.9503 7.90924 12.7245C8.13501 12.4987 8.44122 12.3719 8.7605 12.3719H18.3914C18.7106 12.3719 19.0168 12.4987 19.2426 12.7245C19.4684 12.9503 19.5952 13.2565 19.5952 13.5757C19.5952 13.895 19.4684 14.2012 19.2426 14.427C19.0168 14.6528 18.7106 14.7796 18.3914 14.7796ZM20.7991 9.96417H6.35278C6.0335 9.96417 5.72729 9.83734 5.50153 9.61157C5.27576 9.3858 5.14893 9.0796 5.14893 8.76031C5.14893 8.44103 5.27576 8.13483 5.50153 7.90906C5.72729 7.68329 6.0335 7.55646 6.35278 7.55646H20.7991C21.1184 7.55646 21.4246 7.68329 21.6503 7.90906C21.8761 8.13483 22.0029 8.44103 22.0029 8.76031C22.0029 9.0796 21.8761 9.3858 21.6503 9.61157C21.4246 9.83734 21.1184 9.96417 20.7991 9.96417Z" fill="black"/>
</svg>
