<svg width="60" height="60" viewBox="0 0 60 60" fill="none" xmlns="http://www.w3.org/2000/svg">
<circle cx="30" cy="30" r="30" fill="#6845CC"/>
<path fill-rule="evenodd" clip-rule="evenodd" d="M44.9207 38.6365C45.5829 39.107 46.5 38.6336 46.5 37.8213V15.4729C46.5 14.9206 46.0523 14.4729 45.5 14.4729H23.1276C22.5753 14.4729 22.1276 14.9206 22.1276 15.4729V34.3147C22.1276 34.867 22.5753 35.3147 23.1276 35.3147H39.9479C40.1066 35.3022 40.2649 35.3405 40.4004 35.4242L44.9207 38.6365ZM33.9643 41.0341C34.5166 41.0341 34.9643 40.5864 34.9643 40.0341V37.8657C34.9643 37.3134 34.5166 36.8657 33.9643 36.8657H21.3547C20.9264 36.8657 20.5765 36.4473 20.5765 36.019V21.1923C20.5765 20.64 20.1288 20.1923 19.5765 20.1923H14.5C13.9477 20.1923 13.5 20.64 13.5 21.1923V43.5833C13.5 44.3967 14.4196 44.8698 15.0814 44.3969L19.5996 41.1681C19.7325 41.0769 19.8908 41.0303 20.0521 41.0341H33.9643ZM29.746 27.3066L30.278 25.6966H33.778L34.31 27.3066H37.208L33.624 17.4366H30.46L26.862 27.3066H29.746ZM32.028 20.4046L33.092 23.5966H30.978L32.028 20.4046ZM40.8464 27.3066V17.4366H38.1024V27.3066H40.8464ZM24.93 31.5516C24.93 31.1316 25.014 30.7576 25.182 30.4296C25.354 30.1016 25.598 29.8476 25.914 29.6676C26.23 29.4836 26.602 29.3916 27.03 29.3916C27.398 29.3916 27.726 29.4616 28.014 29.6016C28.306 29.7376 28.542 29.9316 28.722 30.1836C28.906 30.4356 29.028 30.7296 29.088 31.0656H27.684C27.62 30.9256 27.528 30.8176 27.408 30.7416C27.292 30.6616 27.158 30.6216 27.006 30.6216C26.782 30.6216 26.604 30.7056 26.472 30.8736C26.344 31.0416 26.28 31.2676 26.28 31.5516C26.28 31.8356 26.344 32.0616 26.472 32.2296C26.604 32.3976 26.782 32.4816 27.006 32.4816C27.158 32.4816 27.292 32.4436 27.408 32.3676C27.528 32.2876 27.62 32.1776 27.684 32.0376H29.088C29.028 32.3736 28.906 32.6676 28.722 32.9196C28.542 33.1716 28.306 33.3676 28.014 33.5076C27.726 33.6436 27.398 33.7116 27.03 33.7116C26.602 33.7116 26.23 33.6216 25.914 33.4416C25.598 33.2576 25.354 33.0016 25.182 32.6736C25.014 32.3456 24.93 31.9716 24.93 31.5516ZM33.7976 33.6816V29.4336H32.4656V30.9636H31.1996V29.4336H29.8676V33.6816H31.1996V32.0256H32.4656V33.6816H33.7976ZM36.0049 33.0396L35.7949 33.6816H34.3969L35.9509 29.4336H37.4869L39.0349 33.6816H37.6309L37.4209 33.0396H36.0049ZM37.0969 32.0376L36.7129 30.8556L36.3289 32.0376H37.0969ZM42.9735 30.4896V29.4336H39.3975V30.4896H40.5135V33.6816H41.8455V30.4896H42.9735Z" fill="white"/>
</svg>
