<svg width="24" height="24" viewBox="0 0 24 24" fill="none" xmlns="http://www.w3.org/2000/svg">
<path fill-rule="evenodd" clip-rule="evenodd" d="M3.10528 0.481299C2.76533 0.164533 2.3157 -0.00791766 1.85112 0.000279387C1.38654 0.00847644 0.94327 0.196681 0.614708 0.525243C0.286146 0.853805 0.0979414 1.29707 0.0897444 1.76165C0.0815474 2.22624 0.253998 2.67587 0.570764 3.01582L9.46548 11.9105L0.570764 20.8053C0.394575 20.9694 0.253259 21.1674 0.155245 21.3874C0.0572311 21.6074 0.00452747 21.8448 0.000279086 22.0856C-0.0039693 22.3264 0.0403241 22.5656 0.130517 22.7889C0.22071 23.0122 0.354955 23.215 0.525243 23.3853C0.69553 23.5556 0.898373 23.6898 1.12167 23.78C1.34497 23.8702 1.58414 23.9145 1.82493 23.9103C2.06571 23.906 2.30318 23.8533 2.52315 23.7553C2.74313 23.6573 2.94111 23.516 3.10528 23.3398L12 14.4451L20.8947 23.3398C21.0589 23.516 21.2569 23.6573 21.4768 23.7553C21.6968 23.8533 21.9343 23.906 22.1751 23.9103C22.4159 23.9145 22.655 23.8702 22.8783 23.78C23.1016 23.6898 23.3045 23.5556 23.4748 23.3853C23.645 23.215 23.7793 23.0122 23.8695 22.7889C23.9597 22.5656 24.004 22.3264 23.9997 22.0856C23.9955 21.8448 23.9428 21.6074 23.8448 21.3874C23.7467 21.1674 23.6054 20.9694 23.4292 20.8053L14.5345 11.9105L23.4292 3.01582C23.746 2.67587 23.9185 2.22624 23.9103 1.76165C23.9021 1.29707 23.7139 0.853805 23.3853 0.525243C23.0567 0.196681 22.6135 0.00847644 22.1489 0.000279387C21.6843 -0.00791766 21.2347 0.164533 20.8947 0.481299L12 9.37602L3.10528 0.481299Z" fill="white"/>
</svg>
