<svg width="93" height="23" viewBox="0 0 93 23" fill="none" xmlns="http://www.w3.org/2000/svg">
<path d="M38.1478 17.7261L34.4737 8.47027C34.394 8.24946 34.4921 8.12985 34.716 8.12985H36.9241C37.0836 8.12985 37.2247 8.20959 37.286 8.37213L39.6138 14.7758L41.9231 8.37213C41.9845 8.21266 42.1225 8.12985 42.285 8.12985H44.4932C44.714 8.12985 44.8152 8.24946 44.7355 8.47027L41.0613 17.7261C41 17.8856 40.862 17.9684 40.6995 17.9684H38.5097C38.3502 17.9684 38.2092 17.8886 38.1478 17.7261Z" fill="#231F20"/>
<path d="M45.1162 13.0491C45.1162 10.1386 47.0238 7.89062 49.7932 7.89062C51.2806 7.89062 52.3448 8.49173 53.0073 9.51607L53.0471 8.43039C53.0471 8.24945 53.1667 8.12984 53.3477 8.12984H55.3166C55.4976 8.12984 55.6172 8.24945 55.6172 8.43039V17.6678C55.6172 17.8487 55.4761 17.9684 55.2951 17.9684H53.3477C53.1667 17.9684 53.0471 17.8487 53.0471 17.6678L53.0073 16.5821C52.3234 17.585 51.2591 18.2076 49.7932 18.2076C47.0238 18.2076 45.1162 15.978 45.1162 13.046V13.0491ZM50.3759 15.6805C51.8419 15.6805 52.8662 14.6377 52.8662 13.0491C52.8662 11.4605 51.8419 10.4177 50.3759 10.4177C48.9099 10.4177 47.8273 11.4819 47.8273 13.0491C47.8273 14.6163 48.913 15.6805 50.3759 15.6805Z" fill="#231F20"/>
<path d="M57.8037 17.6647V3.91289C57.8037 3.73194 57.9233 3.61234 58.1043 3.61234H60.294C60.475 3.61234 60.5946 3.73194 60.5946 3.91289V17.6678C60.5946 17.8487 60.475 17.9683 60.294 17.9683H58.1043C57.9233 17.9683 57.8037 17.8487 57.8037 17.6678V17.6647Z" fill="#231F20"/>
<path d="M63.5262 15.2174V10.2766H62.281C62.1001 10.2766 61.9805 10.157 61.9805 9.97609V8.43039C61.9805 8.24944 62.1001 8.12983 62.281 8.12983H63.5262V5.82048C63.5262 5.63954 63.6458 5.51993 63.8267 5.51993H66.0165C66.1974 5.51993 66.317 5.63954 66.317 5.82048V8.12983H67.8627C68.0437 8.12983 68.1633 8.24944 68.1633 8.43039V9.97609C68.1633 10.157 68.0437 10.2766 67.8627 10.2766H66.317V14.9137C66.317 15.4965 66.6574 15.7786 67.1788 15.7786C67.3598 15.7786 67.5591 15.7786 67.8014 15.7571C68.0222 15.7357 68.1633 15.8369 68.1633 16.0393V17.5052C68.1633 17.9683 67.1604 18.088 66.498 18.088C64.9308 18.088 63.5262 17.3642 63.5262 15.2174Z" fill="#231F20"/>
<path d="M69.6074 4.83605C69.6074 3.99266 70.2699 3.30875 71.1531 3.30875C72.0364 3.30875 72.6804 3.99266 72.6804 4.83605C72.6804 5.67944 72.0364 6.38175 71.1531 6.38175C70.2699 6.38175 69.6074 5.69784 69.6074 4.83605ZM69.7485 8.43042C69.7485 8.24947 69.8681 8.12986 70.0491 8.12986H72.2388C72.4197 8.12986 72.5393 8.24947 72.5393 8.43042V17.6678C72.5393 17.8488 72.4197 17.9684 72.2388 17.9684H70.0491C69.8681 17.9684 69.7485 17.8488 69.7485 17.6678V8.43042Z" fill="#231F20"/>
<path d="M74.748 17.6647V8.42733C74.748 8.24638 74.8677 8.12677 75.0486 8.12677H77.1371C77.3181 8.12677 77.4193 8.20651 77.4377 8.44879L77.5174 9.71234C77.8579 8.66961 78.4804 7.88449 79.6458 7.88449C80.1089 7.88449 80.388 8.0041 80.5506 8.12371C80.6916 8.22491 80.7315 8.34452 80.7315 8.52547V10.292C80.7315 10.5343 80.5904 10.5925 80.3297 10.5343C80.1089 10.4729 79.8881 10.4331 79.606 10.4331C78.2412 10.4331 77.5174 11.3378 77.5174 12.7424V17.6617C77.5174 17.8426 77.3978 17.9622 77.2169 17.9622H75.0486C74.8677 17.9622 74.748 17.8426 74.748 17.6617V17.6647Z" fill="#231F20"/>
<path d="M81.5322 13.0491C81.5322 10.1386 83.4398 7.89062 86.2092 7.89062C87.6936 7.89062 88.7578 8.49173 89.4202 9.51607L89.4601 8.43039C89.4601 8.24945 89.5797 8.12984 89.7606 8.12984H91.7296C91.9105 8.12984 92.0301 8.24945 92.0301 8.43039V17.6678C92.0301 17.8487 91.889 17.9684 91.7081 17.9684H89.7606C89.5797 17.9684 89.4601 17.8487 89.4601 17.6678L89.4202 16.5821C88.7363 17.585 87.6721 18.2076 86.2092 18.2076C83.4398 18.2076 81.5322 15.978 81.5322 13.046V13.0491ZM86.7919 15.6805C88.2579 15.6805 89.2822 14.6377 89.2822 13.0491C89.2822 11.4605 88.2579 10.4177 86.7919 10.4177C85.3259 10.4177 84.2433 11.4819 84.2433 13.0491C84.2433 14.6163 85.3259 15.6805 86.7919 15.6805Z" fill="#231F20"/>
<path d="M29.2512 9.39338L27.914 8.05623L28.3342 6.5504C28.3894 6.34798 28.4231 6.13944 28.4231 5.92169V5.91249C28.4231 5.47699 28.2759 5.00776 27.9202 4.65201C27.5644 4.29625 27.0952 4.14904 26.6597 4.14904H26.6505H26.6474H26.6382H26.3377V4.17051C26.2303 4.18584 26.123 4.20731 26.0187 4.23798L24.5129 4.65814L23.1757 3.32099C22.6544 2.79962 21.9888 2.51747 21.308 2.44386V2.41319L20.9952 2.40399H20.9798H20.9737H20.9676H20.9522H20.94L20.6149 2.41933V2.43773C19.9463 2.5144 19.2931 2.79655 18.7809 3.30872L18.3945 3.69514L15.8796 6.20997L15.8704 6.20077L12.8772 9.19404L12.7974 9.27378C12.1871 9.88408 11.8896 10.6876 11.8896 11.4789C11.8896 12.2762 12.1994 13.0736 12.7974 13.6717L14.1039 14.9782L14.1898 15.064C14.3585 15.2327 14.6376 15.2327 14.8093 15.064L15.7846 14.0888C15.9532 13.9201 15.9532 13.641 15.7846 13.4693L14.8093 12.494C14.8093 12.494 14.8001 12.4879 14.797 12.4848L14.3922 12.08C14.2235 11.9113 14.1469 11.7027 14.1438 11.4819C14.1438 11.2458 14.2266 11.0372 14.3922 10.8685L16.8457 8.41505L18.0173 7.26191L20.3757 4.90349C20.5444 4.73788 20.7529 4.65814 20.9798 4.65507C21.2099 4.65507 21.4184 4.73788 21.5871 4.90349L23.8566 7.17297L25.9942 6.578L25.3992 8.71254L27.6687 10.982C27.8343 11.1507 27.914 11.3592 27.9171 11.5893C27.9171 11.8162 27.8343 12.0278 27.6687 12.1934L21.5902 18.272C21.4215 18.4376 21.2129 18.5173 20.986 18.5204C20.756 18.5204 20.5474 18.4376 20.3787 18.272L20.2009 18.0941C20.2009 18.0941 20.1917 18.0757 20.1825 18.0696L19.6488 17.5359C19.4801 17.3672 19.2011 17.3672 19.0293 17.5359L18.0541 18.5112C17.8854 18.6799 17.8854 18.9589 18.0541 19.1307L18.3055 19.3822H18.3025L18.784 19.8698C19.2992 20.385 19.9555 20.6641 20.6241 20.7408V20.7469L20.943 20.7745H20.9553H20.9829H20.9952L21.2927 20.7684V20.7439C21.9796 20.6764 22.6544 20.3912 23.1819 19.8667L29.2604 13.7882C29.7848 13.2638 30.07 12.5891 30.1375 11.9021H30.1559L30.1682 11.6046V11.5985V11.5893C30.1682 10.7949 29.8646 9.99449 29.2604 9.39032L29.2512 9.39338Z" fill="url(#paint0_linear_392_7319)"/>
<path d="M4.55037 13.7913L5.88753 15.1284L5.46736 16.6343C5.41216 16.8367 5.37843 17.0452 5.37843 17.263V17.2722C5.37843 17.7077 5.52564 18.1769 5.88139 18.5326C6.23715 18.8884 6.70638 19.0356 7.14187 19.0356H7.15108H7.15414H7.16334H7.4639V19.0141C7.57124 18.9988 7.67858 18.9773 7.78285 18.9467L9.28868 18.5265L10.6258 19.8637C11.1472 20.385 11.8127 20.6672 12.4936 20.7408V20.7653L12.8064 20.7745H12.8217H12.8278H12.834H12.8493H12.8616L13.1867 20.7592V20.7408C13.8552 20.6641 14.5085 20.382 15.0207 19.8698L15.4071 19.4834L17.9219 16.9685L17.9311 16.9777L20.9244 13.9845L21.0041 13.9047C21.6144 13.2944 21.9119 12.4909 21.9119 11.6997C21.9119 10.9023 21.6022 10.1049 21.0041 9.50686L19.6976 8.20037L19.6118 8.1145C19.4431 7.94582 19.164 7.94582 18.9923 8.1145L18.017 9.08976C17.8483 9.25844 17.8483 9.53753 18.017 9.70927L18.9923 10.6845C18.9923 10.6845 19.0015 10.6907 19.0045 10.6937L19.4093 11.0986C19.578 11.2672 19.6547 11.4758 19.6578 11.6966C19.6578 11.9327 19.575 12.1413 19.4093 12.31L16.9559 14.7635L15.7843 15.9166L13.4259 18.275C13.2572 18.4406 13.0487 18.5204 12.8217 18.5234C12.5917 18.5234 12.3832 18.4406 12.2145 18.275L9.94499 16.0056L7.80738 16.6005L8.40236 14.466L6.13287 12.1965C5.96726 12.0278 5.88753 11.8193 5.88446 11.5893C5.88446 11.3623 5.96726 11.1507 6.13287 10.9851L12.2237 4.90656C12.3924 4.74094 12.6009 4.66121 12.8278 4.65814C13.0579 4.65814 13.2664 4.74094 13.4351 4.90656L13.613 5.08443C13.613 5.08443 13.6222 5.10284 13.6314 5.10897L14.165 5.6426C14.3337 5.81128 14.6128 5.81128 14.7845 5.6426L15.7598 4.66734C15.9285 4.49866 15.9285 4.21958 15.7598 4.04783L15.5083 3.79635H15.5114L15.0299 3.30872C14.5146 2.79348 13.8583 2.5144 13.1897 2.43773V2.43159L12.8677 2.40399H12.8555H12.8278H12.8156L12.5181 2.41013V2.43466C11.8311 2.50213 11.1564 2.78735 10.6289 3.31178L4.55037 9.39032C4.02594 9.91475 3.74072 10.5895 3.67325 11.2764H3.65485L3.64258 11.5739V11.5801V11.5923C3.64258 12.3866 3.9462 13.1871 4.55037 13.7913Z" fill="url(#paint1_linear_392_7319)"/>
<defs>
<linearGradient id="paint0_linear_392_7319" x1="30.7202" y1="1.83355" x2="14.4811" y2="18.0757" gradientUnits="userSpaceOnUse">
<stop stop-color="#3B63AE"/>
<stop offset="1" stop-color="#4F98D3"/>
</linearGradient>
<linearGradient id="paint1_linear_392_7319" x1="20.2957" y1="4.13064" x2="6.77078" y2="17.6555" gradientUnits="userSpaceOnUse">
<stop stop-color="#D5368B"/>
<stop offset="1" stop-color="#D6395C"/>
</linearGradient>
</defs>
</svg>
