<svg width="29" height="22" viewBox="0 0 29 22" fill="none" xmlns="http://www.w3.org/2000/svg">
<path d="M24.567 0.960754H4.67858C2.51408 0.960754 0.752686 2.72215 0.752686 4.88719V17.3302C0.752686 19.4953 2.51408 21.2566 4.67858 21.2566H24.567C26.7315 21.2566 28.4929 19.4953 28.4929 17.3302V4.88719C28.4929 2.72215 26.7315 0.960754 24.567 0.960754ZM10.8199 7.20719L6.68975 11.3373L10.3626 15.0102C10.6801 15.3277 10.6801 15.8424 10.3626 16.1594C10.0457 16.4769 9.53096 16.4769 9.21346 16.1594L4.96574 11.9117C4.64824 11.5942 4.64824 11.08 4.96574 10.7625L9.6702 6.05803C9.9877 5.74053 10.5024 5.74053 10.8199 6.05803C11.1369 6.37498 11.1369 6.88969 10.8199 7.20719ZM17.5236 5.29517L13.226 17.4635C13.0765 17.8872 12.6122 18.1088 12.189 17.9592C11.7659 17.8097 11.5438 17.3454 11.6933 16.9222L15.9909 4.75391C16.1404 4.33076 16.6042 4.10862 17.0279 4.25816C17.451 4.4077 17.6732 4.87202 17.5236 5.29517ZM24.2799 11.4549L19.5754 16.1594C19.2579 16.4769 18.7432 16.4769 18.4257 16.1594C18.1088 15.8424 18.1088 15.3277 18.4257 15.0102L22.5559 10.8801L18.883 7.20719C18.5655 6.88969 18.5655 6.37498 18.883 6.05803C19.2 5.74053 19.7147 5.74053 20.0322 6.05803L24.2799 10.3058C24.5974 10.6232 24.5974 11.1374 24.2799 11.4549Z" fill="white"/>
</svg>
