<svg width="27" height="28" viewBox="0 0 27 28" fill="none" xmlns="http://www.w3.org/2000/svg">
<path fill-rule="evenodd" clip-rule="evenodd" d="M11.5119 3.93731C11.5119 2.24195 12.9418 0.812088 14.6371 0.812088C16.3325 0.812088 17.7111 2.24195 17.7111 3.93731C17.7111 5.63266 16.3325 7.06252 14.6371 7.06252C12.9418 7.06252 11.5119 5.63266 11.5119 3.93731ZM14.6367 8.59921C15.9942 8.59921 17.2038 7.99871 18.0484 7.06222C18.7858 7.87985 19.2477 8.95098 19.2477 10.1362V10.9047C19.2477 11.3295 18.904 11.6732 18.4792 11.6732H10.743C10.3182 11.6732 9.9745 11.3295 9.9745 10.9047V10.1362C9.9745 8.95098 10.4364 7.87985 11.1738 7.06222C12.0183 7.99871 13.2792 8.59921 14.6367 8.59921ZM8.17746 24.3996L4.26116 16.5479C3.88301 15.7897 2.96265 15.4805 2.20353 15.8566L1.17995 16.3637C0.798825 16.5527 0.643743 17.0159 0.833971 17.3963L5.44495 26.6183C5.63456 26.9986 6.09581 27.1499 6.47386 26.9635L7.48428 26.4629C8.24637 26.0854 8.557 25.1607 8.17746 24.3996ZM24.3263 13.7033C24.8488 13.1346 25.7249 13.0424 26.3551 13.5035C27.0467 14.0107 27.185 14.9943 26.6778 15.6706L22.1694 22.126C21.3086 23.2787 19.9253 23.9704 18.4805 23.9704H10.9748H9.6813L5.31296 15.2111L6.42451 14.2328L6.44731 14.2513C7.13158 13.7094 7.80627 13.3052 8.80675 13.0733C10.6086 12.6556 12.3885 13.1712 13.5775 14.2412C13.6262 14.2838 13.672 14.3258 13.7161 14.3663C13.9461 14.5775 14.1323 14.7484 14.4536 14.7484H18.4805C19.3259 14.7484 20.0175 15.4401 20.0175 16.2854C20.0175 17.1308 19.3259 17.8224 18.4805 17.8224H15.4065C14.9761 17.8224 14.638 18.1605 14.638 18.5909C14.638 19.0213 14.9761 19.3594 15.4065 19.3594H18.9878C19.2798 19.3594 19.8331 19.175 20.1252 18.8676L24.3263 13.7033Z" fill="white"/>
</svg>
