<svg width="27" height="25" viewBox="0 0 27 25" fill="none" xmlns="http://www.w3.org/2000/svg">
<path d="M9.94743 21.7491C10.4155 22.1601 10.8987 22.5841 11.3958 23.0238C11.3992 23.0268 11.4026 23.0298 11.4061 23.0328L13.0597 24.4611C13.2812 24.6525 13.5562 24.7482 13.8311 24.7482C14.1061 24.7482 14.3811 24.6525 14.6027 24.4611L16.2559 23.0328C16.2594 23.0298 16.2627 23.0268 16.2661 23.0239C19.5395 20.129 21.9937 17.9128 23.7692 15.7513C25.843 13.2269 26.809 10.9443 26.809 8.56811C26.809 4.26896 23.4414 0.901367 19.1424 0.901367C17.2102 0.901367 15.301 1.62893 13.8311 2.89014C12.3608 1.62885 10.4516 0.901367 8.51936 0.901367C4.22021 0.901289 0.852539 4.26896 0.852539 8.56804C0.852539 13.7648 4.4707 16.9411 9.94743 21.7491ZM9.11035 10.4647H12.2572V7.31769H15.4042V10.4647H18.5511V13.6116H15.4042V16.7584H12.2572V13.6116H9.11035V10.4647Z" fill="black"/>
</svg>
