<svg width="27" height="25" viewBox="0 0 27 25" fill="none" xmlns="http://www.w3.org/2000/svg">
<path d="M9.50212 21.7491C9.97022 22.1601 10.4534 22.5841 10.9505 23.0238C10.9539 23.0268 10.9573 23.0298 10.9608 23.0328L12.6143 24.4611C12.8359 24.6525 13.1108 24.7482 13.3858 24.7482C13.6608 24.7482 13.9358 24.6525 14.1573 24.4611L15.8106 23.0328C15.814 23.0298 15.8174 23.0268 15.8208 23.0239C19.0941 20.129 21.5483 17.9128 23.3239 15.7513C25.3977 13.2269 26.3637 10.9443 26.3637 8.56811C26.3637 4.26896 22.9961 0.901367 18.6971 0.901367C16.7649 0.901367 14.8557 1.62893 13.3858 2.89014C11.9155 1.62885 10.0063 0.901367 8.07405 0.901367C3.7749 0.901289 0.407227 4.26896 0.407227 8.56804C0.407227 13.7648 4.02539 16.9411 9.50212 21.7491ZM8.66504 10.4647H11.8119V7.31769H14.9589V10.4647H18.1058V13.6116H14.9589V16.7584H11.8119V13.6116H8.66504V10.4647Z" fill="white"/>
</svg>
