<svg width="38" height="39" viewBox="0 0 38 39" fill="none" xmlns="http://www.w3.org/2000/svg">
<g id="Group 2982">
<path id="Vector" d="M17.0269 25.7179C17.0094 25.5321 16.9807 25.3474 16.9411 25.1645C16.9269 25.0969 16.9081 25.0355 16.8913 24.9712C16.858 24.8441 16.8236 24.7184 16.7765 24.5943C16.752 24.5266 16.7289 24.459 16.7019 24.3913C16.6342 24.2217 16.5567 24.0564 16.4696 23.896C16.4379 23.8386 16.4019 23.7838 16.3676 23.7277C16.3052 23.6251 16.2405 23.5251 16.1716 23.4264C16.1241 23.3588 16.0762 23.2958 16.026 23.2331C15.9538 23.1417 15.8782 23.0552 15.8003 22.9707C15.7538 22.9202 15.7099 22.8668 15.6617 22.8179C15.5409 22.6988 15.4139 22.5859 15.2812 22.48C15.2288 22.4374 15.1733 22.3985 15.1186 22.3586C15.0166 22.2833 14.9156 22.2124 14.8064 22.1464C14.7549 22.1144 14.7041 22.0827 14.6523 22.0523C14.3269 21.8679 13.9811 21.7223 13.6217 21.6184C13.5755 21.6055 13.529 21.595 13.4824 21.5827C13.3399 21.5461 13.195 21.5151 13.0491 21.494C12.9983 21.4867 12.9478 21.4771 12.8964 21.4712C12.7046 21.4465 12.5119 21.4336 12.3185 21.4326C11.9182 21.4333 11.5193 21.4834 11.1312 21.5814C9.03902 22.119 7.57681 24.0056 7.57813 26.1657C7.57912 28.3256 9.04331 30.2105 11.1358 30.7461C11.3177 30.7913 11.5021 30.826 11.6879 30.8504L11.7691 30.8599C11.9278 30.8778 12.0875 30.8877 12.2476 30.8896H12.3888C12.5004 30.8896 12.6099 30.8821 12.7185 30.8725C12.801 30.8652 12.8841 30.855 12.9686 30.8428C12.999 30.8388 13.0293 30.8335 13.0594 30.8286C13.4847 30.7593 13.8992 30.6339 14.2919 30.4557L14.348 30.4286C14.4305 30.3907 14.513 30.3494 14.5968 30.3056C15.8465 29.6155 16.719 28.3992 16.9715 26.994C16.9992 26.8297 17.0203 26.6663 17.0325 26.5027C17.0325 26.4472 17.0385 26.3911 17.0405 26.335C17.0467 26.1783 17.0441 26.0222 17.0345 25.8668C17.0312 25.8173 17.0312 25.7674 17.0269 25.7179Z" fill="white"/>
<path id="Vector_2" d="M23.8075 28.1909C24.1807 28.1909 24.4833 27.8883 24.4833 27.5151V24.8118C24.4833 24.4385 24.1807 24.1359 23.8075 24.1359H23.064C22.2235 24.133 21.4714 23.6129 21.1718 22.8275C21.1002 22.6397 21.0223 22.4529 20.9392 22.2698C20.5917 21.5029 20.753 20.601 21.3447 20.0017L21.874 19.4721C22.1377 19.2081 22.1377 18.7804 21.874 18.5164L19.964 16.6064C19.699 16.3444 19.2727 16.3444 19.0077 16.6064L18.4787 17.135C17.8798 17.7274 16.9775 17.8884 16.2103 17.5406C16.0272 17.4575 15.8407 17.3802 15.6516 17.308C14.8682 17.0073 14.3495 16.2569 14.3458 15.4177V14.6743C14.3458 14.301 14.0432 13.9984 13.67 13.9984H10.9667C10.5934 13.9984 10.2908 14.301 10.2908 14.6743V15.4177C10.2879 16.2582 9.76778 17.0103 8.98239 17.3099C8.79462 17.3816 8.60784 17.4594 8.42469 17.5426C7.65778 17.8907 6.75557 17.7294 6.15662 17.137L5.62698 16.6077C5.36298 16.344 4.9353 16.344 4.67131 16.6077L2.76129 18.5164C2.63457 18.6431 2.56329 18.8151 2.56329 18.9946C2.56329 19.1738 2.63457 19.346 2.76129 19.4727L3.28994 20.0017C3.88162 20.601 4.04299 21.5029 3.69551 22.2698C3.61235 22.4533 3.53513 22.6397 3.46286 22.8288C3.16289 23.6129 2.41215 24.132 1.57264 24.1359H0.829154C0.455927 24.1359 0.15332 24.4385 0.15332 24.8118V27.5151C0.15332 27.8883 0.455927 28.1909 0.829154 28.1909H1.57264C2.41314 28.1939 3.1652 28.714 3.46484 29.4994C3.53645 29.6871 3.61433 29.8739 3.69749 30.0571C4.04497 30.824 3.8836 31.7259 3.29192 32.3251L2.76261 32.8548C2.49894 33.1188 2.49894 33.5464 2.76261 33.8104L4.67263 35.7205C4.79935 35.8472 4.97127 35.9185 5.15079 35.9185C5.32998 35.9185 5.50224 35.8472 5.62896 35.7205L6.15794 35.1918C6.75722 34.6005 7.6591 34.4391 8.42634 34.7862C8.60949 34.8697 8.79594 34.9473 8.98503 35.0189C9.76844 35.3195 10.2872 36.0699 10.2908 36.9091V37.6526C10.2908 38.0258 10.5934 38.3284 10.9667 38.3284H13.67C14.0432 38.3284 14.3458 38.0258 14.3458 37.6526V36.9091C14.3488 36.0686 14.8689 35.3165 15.6543 35.0169C15.842 34.9453 16.0288 34.8674 16.212 34.7843C16.9789 34.4361 17.8811 34.5975 18.48 35.1898L19.0097 35.7191C19.2737 35.9828 19.7013 35.9828 19.9653 35.7191L21.8754 33.8091C22.0021 33.6824 22.0734 33.5105 22.0734 33.331C22.0734 33.1518 22.0021 32.9795 21.8754 32.8528L21.3467 32.3238C20.755 31.7245 20.5937 30.8227 20.9411 30.0554C21.0246 29.8723 21.1022 29.6858 21.1738 29.4967C21.4744 28.7133 22.2248 28.1946 23.064 28.1909H23.8075ZM18.3955 26.2769C18.3955 26.3987 18.386 26.5202 18.3764 26.6426C18.3665 26.7779 18.3493 26.9063 18.3305 27.0366C18.1867 28.0223 17.8402 28.9677 17.3128 29.8129C17.2125 29.9762 17.0907 30.1254 16.9505 30.2564C16.4317 30.7487 15.849 31.1695 15.2183 31.5074H15.2144C15.1002 31.5681 14.9873 31.6196 14.8765 31.6714C14.789 31.712 14.7019 31.7539 14.6128 31.7905C14.5237 31.8268 14.4227 31.8579 14.3283 31.8945C14.2336 31.9311 14.1439 31.9621 14.0492 31.9885C13.9274 32.0242 13.8092 32.0562 13.6901 32.0809C13.6228 32.0958 13.5611 32.1129 13.4951 32.1255C13.3255 32.1595 13.1572 32.1839 12.9948 32.202C12.9734 32.202 12.9516 32.2086 12.9272 32.211C12.7246 32.2311 12.5216 32.2439 12.3305 32.2439C12.221 32.2439 12.123 32.2284 12.0177 32.2228C11.8593 32.2156 11.7019 32.2116 11.5445 32.1918C11.3062 32.1601 11.0696 32.1149 10.8363 32.0568C10.8248 32.0568 10.8132 32.0532 10.8023 32.0506C8.11548 31.3572 6.23747 28.9344 6.23648 26.1595C6.23549 23.3845 8.11119 20.96 10.7977 20.2647C11.0135 20.2123 11.2323 20.1713 11.4527 20.1423C11.529 20.1317 11.6059 20.1228 11.6824 20.1146C11.8276 20.0997 11.9722 20.0918 12.1164 20.0875C12.1837 20.0875 12.2513 20.075 12.319 20.075C13.6258 20.075 14.8969 20.499 15.942 21.2831L16.0529 21.3656C16.138 21.4329 16.2219 21.5019 16.3037 21.5725C16.3713 21.6319 16.439 21.6943 16.5063 21.757C16.5618 21.8098 16.6172 21.8609 16.67 21.9157C16.7706 22.018 16.8667 22.1246 16.9601 22.2348C16.9802 22.2586 17.0026 22.2813 17.0221 22.3058C17.2511 22.5823 17.4544 22.879 17.6303 23.1918C17.6392 23.2073 17.6445 23.2241 17.6534 23.2397C17.7649 23.4446 17.8646 23.6558 17.9514 23.8723C17.9893 23.965 18.019 24.058 18.054 24.1521C18.1015 24.2874 18.1441 24.4243 18.1817 24.5636C18.2117 24.6732 18.2428 24.7821 18.2662 24.8923C18.3022 25.0606 18.3279 25.2302 18.3493 25.4051C18.3691 25.5661 18.3807 25.7275 18.3873 25.8899C18.3913 25.979 18.4008 26.0667 18.4008 26.1601C18.4008 26.202 18.3962 26.2383 18.3955 26.2769Z" fill="white"/>
<path id="Vector_3" d="M37.3238 14.6743H35.1983C34.3334 14.6776 33.5635 14.1275 33.2863 13.3084C33.0959 12.7408 32.8659 12.1874 32.5976 11.6518C32.2115 10.8767 32.3649 9.94112 32.9787 9.32963L34.4858 7.8199C34.7495 7.55623 34.7495 7.12888 34.4858 6.86489L31.6172 3.99622C31.3532 3.73223 30.9255 3.73223 30.6615 3.99622L29.1517 5.50332C28.5403 6.11612 27.6057 6.2699 26.8302 5.88513C26.2946 5.61651 25.7409 5.38617 25.173 5.19576C24.3536 4.91857 23.8035 4.14802 23.8071 3.2831V1.15759C23.8071 0.784365 23.5045 0.481758 23.1313 0.481758H19.0763C18.7031 0.481758 18.4005 0.784365 18.4005 1.15759V3.2831C18.4038 4.14769 17.8536 4.91758 17.0346 5.1951C16.467 5.38551 15.9136 5.61552 15.378 5.88381C14.6028 6.27056 13.667 6.11711 13.0558 5.50266L11.5461 3.99622C11.2821 3.73223 10.8544 3.73223 10.5904 3.99622L7.72241 6.86423C7.45841 7.12822 7.45841 7.5559 7.72241 7.8199L12.5437 12.6468H13.6696H13.7062C14.0465 12.1099 14.4438 11.6112 14.8916 11.1598C15.0965 10.9549 15.3117 10.7602 15.5364 10.5767C15.6242 10.5051 15.7166 10.4414 15.8067 10.3741C15.9473 10.2672 16.0859 10.1589 16.2324 10.0609C16.331 9.99359 16.435 9.93947 16.533 9.87842C16.6805 9.78866 16.8257 9.69659 16.9785 9.61574C17.0663 9.56888 17.157 9.5306 17.2488 9.48671C17.4204 9.40223 17.5923 9.31841 17.7698 9.24516C17.8375 9.21809 17.9051 9.19731 17.9685 9.17223C18.1714 9.09402 18.3797 9.01812 18.5912 8.95542C18.6255 8.94519 18.6585 8.93859 18.6945 8.92836C20.2702 8.47065 21.944 8.47065 23.52 8.92836C23.5543 8.93859 23.5873 8.94519 23.6233 8.95542C23.8348 9.01812 24.0411 9.09402 24.2457 9.17223C24.3133 9.19731 24.381 9.21809 24.4443 9.24516C24.6222 9.31841 24.7938 9.40223 24.9654 9.48671C25.0548 9.5306 25.1453 9.56888 25.2357 9.61574C25.3885 9.69659 25.5333 9.788 25.6799 9.87776C25.7805 9.93947 25.8825 9.99557 25.9818 10.0609C26.1286 10.1589 26.2672 10.2639 26.4072 10.3734C26.4969 10.4407 26.5897 10.5038 26.6774 10.576C27.1266 10.9433 27.5381 11.3548 27.9053 11.804C27.977 11.8917 28.0406 11.9845 28.108 12.0742C28.2142 12.2141 28.3225 12.3527 28.4205 12.4996C28.4878 12.5983 28.5419 12.7022 28.6036 12.8015C28.6934 12.948 28.7848 13.0929 28.8656 13.2457C28.9125 13.3335 28.9508 13.4239 28.9947 13.516C29.0791 13.6876 29.163 13.8592 29.2362 14.037C29.2633 14.1047 29.2841 14.172 29.3092 14.2357C29.3874 14.4383 29.4633 14.6465 29.526 14.8581C29.5362 14.8927 29.5428 14.9257 29.553 14.9614C30.0107 16.5374 30.0107 18.2112 29.553 19.7869C29.5428 19.8216 29.5362 19.8546 29.526 19.8902C29.4633 20.1017 29.391 20.308 29.3092 20.5129C29.2841 20.5802 29.2633 20.6479 29.2362 20.7116C29.163 20.8891 29.0791 21.061 28.9947 21.2326C28.9508 21.3217 28.9125 21.4125 28.8656 21.5029C28.7848 21.6557 28.6927 21.8009 28.603 21.9484C28.5419 22.0484 28.4858 22.151 28.4205 22.249C28.3225 22.3955 28.2175 22.5341 28.1073 22.6747C28.04 22.7641 27.9776 22.8565 27.9047 22.945C27.7212 23.1697 27.5265 23.3849 27.3216 23.5898C26.8701 24.0376 26.3715 24.4349 25.8346 24.7751C25.8346 24.788 25.8379 24.7996 25.8379 24.8118V25.9377L30.6615 30.759C30.9252 31.0226 31.3525 31.0226 31.6165 30.759L34.4852 27.891C34.7492 27.627 34.7492 27.1993 34.4852 26.9353L32.9781 25.4256C32.3646 24.8144 32.2108 23.8792 32.5963 23.104C32.8649 22.5684 33.0952 22.0147 33.2856 21.4468C33.5628 20.6274 34.3334 20.0773 35.1983 20.0809H37.3238C37.697 20.0809 37.9996 19.7783 37.9996 19.4051V15.3501C37.9996 14.9769 37.697 14.6743 37.3238 14.6743Z" fill="white"/>
</g>
</svg>
