<svg width="33" height="34" viewBox="0 0 33 34" fill="none" xmlns="http://www.w3.org/2000/svg">
<g id="Layer 2">
<path id="Vector" d="M29.8098 4.94243C27.4915 2.2999 22.5145 0.678711 16.4836 0.678711C10.4528 0.678711 5.47579 2.2999 3.15749 4.94243C-0.700934 9.41691 -0.700934 24.3967 3.15749 28.8387C5.47579 31.4813 10.4528 33.1024 16.4836 33.1024C22.5145 33.1024 27.4915 31.4813 29.8098 28.8387C33.6682 24.3642 33.6682 9.41691 29.8098 4.94243ZM16.4836 8.37935C16.8844 8.37935 17.2762 8.4982 17.6095 8.72087C17.9428 8.94354 18.2025 9.26004 18.3559 9.63033C18.5092 10.0006 18.5494 10.4081 18.4712 10.8012C18.393 11.1943 18.2 11.5554 17.9166 11.8388C17.6332 12.1222 17.2721 12.3152 16.879 12.3934C16.4859 12.4716 16.0784 12.4314 15.7081 12.2781C15.3378 12.1247 15.0214 11.8649 14.7987 11.5317C14.576 11.1984 14.4572 10.8066 14.4572 10.4058C14.4572 9.86837 14.6707 9.35293 15.0507 8.97289C15.4307 8.59285 15.9462 8.37935 16.4836 8.37935ZM18.1048 25.8071H14.8625C14.4325 25.8071 14.0201 25.6363 13.7161 25.3323C13.4121 25.0282 13.2413 24.6159 13.2413 24.1859C13.2413 23.7559 13.4121 23.3436 13.7161 23.0396C14.0201 22.7355 14.4325 22.5647 14.8625 22.5647V17.7012C14.4325 17.7012 14.0201 17.5304 13.7161 17.2263C13.4121 16.9223 13.2413 16.5099 13.2413 16.08C13.2413 15.65 13.4121 15.2377 13.7161 14.9336C14.0201 14.6296 14.4325 14.4588 14.8625 14.4588H16.4836C16.9136 14.4588 17.326 14.6296 17.63 14.9336C17.934 15.2377 18.1048 15.65 18.1048 16.08V22.5647C18.5348 22.5647 18.9471 22.7355 19.2512 23.0396C19.5552 23.3436 19.726 23.7559 19.726 24.1859C19.726 24.6159 19.5552 25.0282 19.2512 25.3323C18.9471 25.6363 18.5348 25.8071 18.1048 25.8071Z" fill="white"/>
</g>
</svg>
