<svg width="37" height="26" viewBox="0 0 37 26" fill="none" xmlns="http://www.w3.org/2000/svg">
<path d="M35.6489 10.058L33.8251 8.23419L34.3982 6.18027C34.4735 5.90418 34.5195 5.61973 34.5195 5.32272V5.31017C34.5195 4.71617 34.3187 4.07615 33.8334 3.5909C33.3482 3.10566 32.7082 2.90487 32.1142 2.90487H32.1016H32.0974H32.0849H31.6749V2.93415C31.5285 2.95507 31.3821 2.98435 31.2399 3.02618L29.186 3.59927L27.3621 1.77542C26.651 1.06428 25.7432 0.679435 24.8146 0.579039V0.537208L24.3879 0.524658H24.367H24.3586H24.3502H24.3293H24.3126L23.8692 0.545574V0.570673C22.9573 0.675251 22.0663 1.0601 21.3677 1.75869L20.8406 2.28576L17.4104 5.71594L17.3979 5.70339L13.3151 9.78614L13.2064 9.8949C12.3739 10.7273 11.9681 11.8233 11.9681 12.9026C11.9681 13.9902 12.3906 15.0778 13.2064 15.8935L14.9884 17.6756L15.1055 17.7927C15.3356 18.0228 15.7162 18.0228 15.9505 17.7927L17.2807 16.4624C17.5108 16.2324 17.5108 15.8517 17.2807 15.6174L15.9505 14.2872C15.9505 14.2872 15.9379 14.2788 15.9338 14.2747L15.3816 13.7225C15.1515 13.4924 15.0469 13.208 15.0428 12.9068C15.0428 12.5847 15.1557 12.3002 15.3816 12.0701L18.7281 8.72362L20.3261 7.15076L23.5429 3.93392C23.773 3.70803 24.0574 3.59927 24.367 3.59509C24.6807 3.59509 24.9652 3.70803 25.1952 3.93392L28.2908 7.02945L31.2064 6.21792L30.3949 9.12939L33.4904 12.2249C33.7163 12.455 33.8251 12.7394 33.8293 13.0532C33.8293 13.3627 33.7163 13.6514 33.4904 13.8773L25.1994 22.1682C24.9694 22.3941 24.6849 22.5029 24.3753 22.5071C24.0616 22.5071 23.7772 22.3941 23.5471 22.1682L23.3045 21.9256C23.3045 21.9256 23.2919 21.9005 23.2794 21.8922L22.5515 21.1643C22.3214 20.9342 21.9408 20.9342 21.7065 21.1643L20.3763 22.4945C20.1462 22.7246 20.1462 23.1053 20.3763 23.3395L20.7193 23.6825H20.7151L21.3718 24.3477C22.0746 25.0504 22.9698 25.4311 23.8817 25.5357V25.544L24.3168 25.5817H24.3335H24.3712H24.3879L24.7937 25.5733V25.5399C25.7307 25.4478 26.651 25.0588 27.3705 24.3435L35.6615 16.0525C36.3768 15.3372 36.7658 14.4169 36.8578 13.4799H36.8829L36.8997 13.0741V13.0657V13.0532C36.8997 11.9697 36.4855 10.8779 35.6615 10.0539L35.6489 10.058Z" fill="url(#paint0_linear_647_77)"/>
<path d="M1.95757 16.0567L3.78142 17.8805L3.20833 19.9344C3.13303 20.2105 3.08702 20.495 3.08702 20.792V20.8045C3.08702 21.3985 3.28781 22.0386 3.77306 22.5238C4.2583 23.0091 4.89832 23.2099 5.49233 23.2099H5.50488H5.50906H5.52161H5.93156V23.1806C6.07797 23.1597 6.22438 23.1304 6.36661 23.0885L8.42053 22.5154L10.2444 24.3393C10.9555 25.0504 11.8633 25.4353 12.7919 25.5357V25.5691L13.2186 25.5817H13.2395H13.2479H13.2562H13.2772H13.2939L13.7373 25.5608V25.5357C14.6492 25.4311 15.5402 25.0462 16.2388 24.3477L16.7659 23.8206L20.1961 20.3904L20.2086 20.403L24.2914 16.3202L24.4001 16.2114C25.2326 15.379 25.6384 14.283 25.6384 13.2038C25.6384 12.1162 25.2159 11.0285 24.4001 10.2128L22.6181 8.4308L22.501 8.31367C22.2709 8.0836 21.8903 8.0836 21.656 8.31367L20.3258 9.64391C20.0957 9.87399 20.0957 10.2547 20.3258 10.4889L21.656 11.8191C21.656 11.8191 21.6686 11.8275 21.6727 11.8317L22.2249 12.3839C22.455 12.6139 22.5596 12.8984 22.5637 13.1996C22.5637 13.5217 22.4508 13.8061 22.2249 14.0362L18.8784 17.3827L17.2804 18.9556L14.0636 22.1724C13.8335 22.3983 13.5491 22.5071 13.2395 22.5113C12.9258 22.5113 12.6413 22.3983 12.4113 22.1724L9.31572 19.0769L6.40007 19.8884L7.2116 16.977L4.11607 13.8814C3.89018 13.6514 3.78142 13.3669 3.77724 13.0532C3.77724 12.7436 3.89018 12.455 4.11607 12.2291L12.4238 3.9381C12.6539 3.71221 12.9383 3.60345 13.2479 3.59927C13.5616 3.59927 13.8461 3.71221 14.0761 3.9381L14.3188 4.18073C14.3188 4.18073 14.3313 4.20583 14.3439 4.21419L15.0717 4.94206C15.3018 5.17213 15.6825 5.17213 15.9167 4.94206L17.247 3.61182C17.477 3.38175 17.477 3.00108 17.247 2.76682L16.9039 2.42381H16.9081L16.2514 1.75869C15.5486 1.05592 14.6534 0.675251 13.7415 0.570673V0.562307L13.3023 0.524658H13.2855H13.2479H13.2311L12.8254 0.533024V0.56649C11.8884 0.658519 10.9681 1.04755 10.2486 1.76287L1.95757 10.0539C1.24225 10.7692 0.853221 11.6895 0.761192 12.6265H0.736093L0.71936 13.0323V13.0406V13.0574C0.71936 14.1408 1.13349 15.2326 1.95757 16.0567Z" fill="url(#paint1_linear_647_77)"/>
<defs>
<linearGradient id="paint0_linear_647_77" x1="37.6526" y1="-0.253408" x2="15.5029" y2="21.9005" gradientUnits="userSpaceOnUse">
<stop stop-color="#3B63AE"/>
<stop offset="1" stop-color="#4F98D3"/>
</linearGradient>
<linearGradient id="paint1_linear_647_77" x1="23.4338" y1="2.87977" x2="4.98617" y2="21.3274" gradientUnits="userSpaceOnUse">
<stop stop-color="#D5368B"/>
<stop offset="1" stop-color="#D6395C"/>
</linearGradient>
</defs>
</svg>
