<svg width="34" height="24" viewBox="0 0 34 24" fill="none" xmlns="http://www.w3.org/2000/svg">
<g id="Group 2980">
<path id="Vector" d="M29.1703 0.00217003H5.17283C4.89629 0.00149173 4.62981 0.105875 4.42731 0.294204C4.2248 0.482532 4.10139 0.740746 4.08203 1.01661V14.2589C4.10139 14.5347 4.2248 14.7929 4.42731 14.9813C4.62981 15.1696 4.89629 15.274 5.17283 15.2733H29.1703C29.4469 15.274 29.7133 15.1696 29.9158 14.9813C30.1184 14.7929 30.2418 14.5347 30.2611 14.2589V1.01661C30.2418 0.740746 30.1184 0.482532 29.9158 0.294204C29.7133 0.105875 29.4469 0.00149173 29.1703 0.00217003Z" fill="white"/>
<path id="Vector_2" d="M33.4464 22.8216L30.174 16.8877C30.0707 16.717 29.9224 16.5779 29.7455 16.4855C29.5685 16.3932 29.3697 16.3512 29.1705 16.3641H5.17299C4.9749 16.3501 4.77674 16.3905 4.59989 16.4808C4.42305 16.5712 4.27422 16.7081 4.16946 16.8768L0.897073 22.8107C0.826544 22.9359 0.797031 23.08 0.812684 23.2229C0.828337 23.3657 0.888369 23.5 0.984337 23.607C1.1 23.7343 1.24167 23.8352 1.39976 23.903C1.55785 23.9707 1.72866 24.0037 1.90061 23.9997H32.4429C32.6122 24.0035 32.7804 23.9715 32.9364 23.9057C33.0925 23.8399 33.2328 23.7418 33.3482 23.6179C33.4459 23.5122 33.508 23.3784 33.5256 23.2356C33.5432 23.0927 33.5155 22.9479 33.4464 22.8216ZM19.3533 21.8181H14.9902C14.7009 21.8181 14.4234 21.7032 14.2188 21.4986C14.0143 21.294 13.8994 21.0166 13.8994 20.7273C13.8994 20.438 14.0143 20.1605 14.2188 19.956C14.4234 19.7514 14.7009 19.6365 14.9902 19.6365H19.3533C19.6426 19.6365 19.9201 19.7514 20.1246 19.956C20.3292 20.1605 20.4441 20.438 20.4441 20.7273C20.4441 21.0166 20.3292 21.294 20.1246 21.4986C19.9201 21.7032 19.6426 21.8181 19.3533 21.8181Z" fill="white"/>
</g>
</svg>
