<svg width="153" height="31" viewBox="0 0 153 31" fill="none" xmlns="http://www.w3.org/2000/svg">
<g id="Group 2979">
<path id="Vector" d="M15.4423 1.23431C6.99651 1.23431 0.154297 7.88646 0.154297 16.0976C0.154297 24.3088 6.99651 30.9609 15.4423 30.9609C23.888 30.9609 30.7302 24.3088 30.7302 16.0976C30.7302 7.88646 23.888 1.23431 15.4423 1.23431ZM19.8316 10.5553C19.8316 10.5553 18.2145 10.542 17.8068 10.542C17.1953 10.542 16.7876 11.0573 16.7876 11.5792V13.7657H19.8316L19.4851 16.745H16.7536V24.355H13.6621V16.7846H11.0529V13.7327H13.7028C13.7028 13.7327 13.7028 12.6625 13.7028 10.8525C13.7028 9.24728 15.5374 7.83362 16.8148 7.83362C17.005 7.83362 19.8316 7.86004 19.8316 7.86004V10.5553Z" fill="white"/>
<path id="Vector_2" d="M96.5936 1.23431C88.1479 1.23431 81.3057 7.88646 81.3057 16.0976C81.3057 24.3088 88.1479 30.9609 96.5936 30.9609C105.039 30.9609 111.882 24.3088 111.882 16.0976C111.882 7.88646 105.039 1.23431 96.5936 1.23431ZM103.409 12.6691C103.409 12.6691 103.905 17.0687 100.331 20.365C95.323 24.9826 88.1003 21.3889 88.1003 21.3889C91.5724 21.4286 93.04 20.0083 93.04 20.0083C90.1863 19.5327 89.9009 17.5509 89.9009 17.5509C90.3901 17.8482 91.4569 17.5509 91.4569 17.5509C88.277 16.1306 88.773 14.2612 88.773 14.2612C89.6971 14.7632 90.3901 14.5782 90.3901 14.5782C87.9169 12.4908 89.3166 10.2778 89.3166 10.2778C93.6583 14.2942 96.4509 13.4685 96.4509 13.4685C96.2539 10.6411 97.9729 9.54455 99.8279 9.48509C101.391 9.43225 102.288 10.4892 102.288 10.4892C103.49 10.5883 104.618 9.80878 104.618 9.80878C104.516 10.7534 103.198 11.5527 103.198 11.5527C103.884 11.6122 105.08 11.2489 105.08 11.2489C104.462 12.3521 103.409 12.6691 103.409 12.6691Z" fill="white"/>
<path id="Union" fill-rule="evenodd" clip-rule="evenodd" d="M47.5249 3.38724C50.039 1.75404 52.9948 0.882324 56.0184 0.882324C60.073 0.882324 63.9616 2.44827 66.8286 5.23568C69.6957 8.02309 71.3064 11.8036 71.3064 15.7456C71.3064 18.6853 70.4098 21.559 68.7299 24.0032C67.05 26.4475 64.6624 28.3525 61.8689 29.4775C59.0754 30.6025 56.0015 30.8968 53.0359 30.3233C50.0703 29.7498 47.3463 28.3342 45.2082 26.2555C43.0702 24.1769 41.6141 21.5285 41.0242 18.6453C40.4343 15.7621 40.7371 12.7736 41.8942 10.0577C43.0513 7.34177 45.0108 5.02044 47.5249 3.38724ZM62.3273 21.8793C63.1812 21.0491 63.6613 19.9235 63.6624 18.7496V12.7417C63.6608 11.5678 63.1805 10.4425 62.3267 9.61252C61.473 8.78251 60.3156 8.31552 59.1082 8.31397H52.9287C51.7213 8.31552 50.5638 8.78251 49.7101 9.61252C48.8564 10.4425 48.376 11.5678 48.3745 12.7417V18.7496C48.376 19.9234 48.8564 21.0487 49.7101 21.8787C50.5638 22.7087 51.7213 23.1757 52.9287 23.1773H59.1082C60.3157 23.1762 61.4735 22.7094 62.3273 21.8793ZM59.1077 9.81012H52.9282C52.1279 9.81012 51.3605 10.1192 50.7946 10.6693C50.2287 11.2195 49.9108 11.9656 49.9108 12.7437V18.7496C49.9108 19.5276 50.2287 20.2738 50.7946 20.8239C51.3605 21.3741 52.1279 21.6831 52.9282 21.6831H59.1077C59.908 21.6831 60.6755 21.3741 61.2413 20.8239C61.8072 20.2738 62.1251 19.5276 62.1251 18.7496V12.7417C62.1246 11.964 61.8064 11.2184 61.2406 10.6686C60.6748 10.1189 59.9076 9.81012 59.1077 9.81012ZM56.018 19.5906C55.2357 19.5909 54.4709 19.3658 53.8203 18.9435C53.1696 18.5213 52.6624 17.9209 52.3628 17.2184C52.0632 16.5159 51.9846 15.7427 52.1369 14.9968C52.2893 14.2508 52.6658 13.5655 53.2188 13.0276C53.7718 12.4897 54.4765 12.1233 55.2437 11.9748C56.0109 11.8263 56.8061 11.9023 57.5289 12.1932C58.2517 12.4842 58.8694 12.977 59.3041 13.6093C59.7387 14.2417 59.9707 14.9851 59.9707 15.7457C59.9696 16.7647 59.5529 17.7418 58.8119 18.4626C58.0709 19.1834 57.0661 19.589 56.018 19.5906ZM59.9948 12.8512C59.8013 12.8516 59.612 12.7961 59.4509 12.6919C59.2899 12.5876 59.1642 12.4391 59.09 12.2654C59.0158 12.0916 58.9962 11.9004 59.0339 11.7158C59.0715 11.5313 59.1647 11.3617 59.3015 11.2287C59.4384 11.0956 59.6128 11.0051 59.8026 10.9685C59.9924 10.9318 60.1892 10.9508 60.3679 11.023C60.5466 11.0952 60.6993 11.2173 60.8065 11.3739C60.9138 11.5305 60.9708 11.7146 60.9705 11.9027C60.9699 12.1541 60.867 12.3951 60.6841 12.5728C60.5013 12.7506 60.2534 12.8507 59.9948 12.8512ZM56.0179 18.0943C57.3521 18.0943 58.4338 17.0427 58.4338 15.7455C58.4338 14.4483 57.3521 13.3967 56.0179 13.3967C54.6836 13.3967 53.602 14.4483 53.602 15.7455C53.602 17.0427 54.6836 18.0943 56.0179 18.0943Z" fill="white"/>
<path id="Vector_3" d="M137.169 1.23431C134.145 1.23431 131.189 2.10603 128.675 3.73923C126.161 5.37243 124.202 7.69376 123.045 10.4097C121.887 13.1256 121.585 16.1141 122.175 18.9973C122.765 21.8805 124.221 24.5289 126.359 26.6075C128.497 28.6862 131.221 30.1018 134.186 30.6753C137.152 31.2488 140.226 30.9545 143.019 29.8295C145.813 28.7045 148.2 26.7995 149.88 24.3552C151.56 21.9109 152.457 19.0373 152.457 16.0976C152.457 12.1556 150.846 8.37508 147.979 5.58767C145.112 2.80026 141.223 1.23431 137.169 1.23431V1.23431ZM133.278 23.0266C133.278 23.1599 133.224 23.2878 133.127 23.382C133.03 23.4763 132.899 23.5292 132.761 23.5292H130.565C130.497 23.5295 130.43 23.5167 130.367 23.4915C130.304 23.4663 130.247 23.4293 130.199 23.3826C130.151 23.3359 130.113 23.2804 130.087 23.2193C130.061 23.1582 130.048 23.0927 130.048 23.0266V14.0715C130.048 13.9382 130.102 13.8104 130.199 13.7161C130.296 13.6218 130.428 13.5689 130.565 13.5689H132.761C132.899 13.5689 133.03 13.6218 133.127 13.7161C133.224 13.8104 133.278 13.9382 133.278 14.0715V23.0266ZM131.669 12.726C131.256 12.7275 130.852 12.6098 130.507 12.3878C130.163 12.1658 129.894 11.8494 129.735 11.4787C129.575 11.108 129.533 10.6997 129.612 10.3055C129.692 9.91123 129.89 9.54878 130.181 9.26402C130.473 8.97925 130.844 8.78498 131.25 8.7058C131.655 8.62661 132.075 8.66607 132.457 8.81919C132.839 8.9723 133.166 9.23218 133.396 9.56593C133.626 9.89967 133.749 10.2923 133.749 10.694C133.749 10.9606 133.696 11.2246 133.591 11.471C133.486 11.7174 133.333 11.9413 133.139 12.13C132.945 12.3187 132.715 12.4685 132.462 12.5707C132.209 12.673 131.937 12.7257 131.663 12.726H131.669ZM144.769 23.0677C144.769 23.1901 144.719 23.3075 144.629 23.3941C144.54 23.4806 144.42 23.5292 144.294 23.5292H141.93C141.804 23.5292 141.684 23.4806 141.595 23.3941C141.505 23.3075 141.455 23.1901 141.455 23.0677V18.8669C141.455 18.2391 141.643 16.1289 139.77 16.1289C138.317 16.1289 138.022 17.58 137.959 18.2313V23.0775C137.957 23.1975 137.906 23.3118 137.818 23.3962C137.73 23.4805 137.612 23.5283 137.489 23.5292H135.208C135.145 23.5295 135.083 23.5177 135.026 23.4946C134.968 23.4715 134.915 23.4376 134.871 23.3946C134.827 23.3517 134.792 23.3007 134.768 23.2446C134.745 23.1885 134.733 23.1284 134.733 23.0677V14.0324C134.733 13.9716 134.745 13.9114 134.768 13.8552C134.792 13.7989 134.827 13.7478 134.871 13.7048C134.915 13.6617 134.968 13.6275 135.025 13.6042C135.083 13.5809 135.145 13.5689 135.208 13.5689H137.489C137.552 13.5678 137.615 13.5791 137.674 13.6019C137.732 13.6247 137.786 13.6587 137.831 13.7018C137.876 13.745 137.912 13.7964 137.936 13.8532C137.961 13.9099 137.973 13.9709 137.973 14.0324V14.8147C138.513 14.0324 139.313 13.4203 141.017 13.4203C144.795 13.4203 144.773 16.8505 144.773 18.7339L144.769 23.0677Z" fill="white"/>
</g>
</svg>
