<svg width="35" height="35" viewBox="0 0 35 35" fill="none" xmlns="http://www.w3.org/2000/svg">
<g id="Union">
<path id="Union_2" fill-rule="evenodd" clip-rule="evenodd" d="M14.8647 4.77435C14.8647 2.56784 16.7257 0.706863 18.9322 0.706863C21.1387 0.706863 22.933 2.56784 22.933 4.77435C22.933 6.98086 21.1387 8.84184 18.9322 8.84184C16.7257 8.84184 14.8647 6.98086 14.8647 4.77435ZM18.9322 10.8418C20.699 10.8418 22.2733 10.0602 23.3726 8.8414C24.3322 9.90555 24.9334 11.2996 24.9334 12.8422V13.8424C24.9334 14.3953 24.4861 14.8426 23.9332 14.8426H13.8645C13.3117 14.8426 12.8643 14.3953 12.8643 13.8424V12.8422C12.8643 11.2996 13.4655 9.90555 14.4252 8.8414C15.5244 10.0602 17.1654 10.8418 18.9322 10.8418ZM10.5252 31.4061L5.42811 21.1871C4.93594 20.2003 3.7381 19.7978 2.7501 20.2873L1.4179 20.9473C0.921868 21.1933 0.720027 21.7961 0.96761 22.2913L6.96882 34.2937C7.2156 34.7887 7.81592 34.9856 8.30796 34.743L9.62302 34.0914C10.6149 33.6002 11.0192 32.3966 10.5252 31.4061ZM31.543 17.4848C32.223 16.7447 33.3633 16.6246 34.1835 17.2248C35.0836 17.885 35.2636 19.1651 34.6035 20.0453L28.7357 28.447C27.6155 29.9473 25.8151 30.8475 23.9347 30.8475H14.166H12.4824L6.79704 19.4472L8.24373 18.174L8.2734 18.1981C9.16398 17.4928 10.0421 16.9667 11.3442 16.6649C13.6894 16.1213 16.0058 16.7923 17.5534 18.1849C17.6167 18.2403 17.6763 18.295 17.7338 18.3478C18.0331 18.6226 18.2754 18.8451 18.6936 18.8451H23.9347C25.0349 18.8451 25.9351 19.7453 25.9351 20.8455C25.9351 21.9457 25.0349 22.8459 23.9347 22.8459H19.9339C19.3737 22.8459 18.9337 23.2859 18.9337 23.8461C18.9337 24.4063 19.3737 24.8463 19.9339 24.8463H24.5949C24.975 24.8463 25.6951 24.6063 26.0752 24.2062L31.543 17.4848Z" fill="white"/>
</g>
</svg>
