<svg width="36" height="26" viewBox="0 0 36 26" fill="none" xmlns="http://www.w3.org/2000/svg">
<path d="M10.0151 6.8935H28.4712V5.73981C28.4712 4.78765 27.6913 4.00927 26.7406 4.00927H19.1232V3.0017C19.1232 1.56804 17.9572 0.406647 16.5281 0.406647H12.0979C11.4057 0.406647 10.755 0.677348 10.2628 1.16962C9.7705 1.66189 9.5013 2.3079 9.5013 3.0017V4.01077H1.88386C0.931694 4.00927 0.15332 4.78758 0.15332 5.73981V21.1948L5.97105 9.40861C6.67711 7.97331 8.41842 6.8935 10.0151 6.8935ZM11.2319 3.0017C11.2319 2.7725 11.3258 2.55557 11.4873 2.39255C11.6488 2.22639 11.8672 2.13569 12.0964 2.13569H16.5266C17.0051 2.13569 17.3911 2.52334 17.3911 3.0017V4.01077H11.232V3.0017H11.2319Z" fill="white"/>
<path d="M34.8733 8.62097H10.015C9.06433 8.62097 7.93988 9.31933 7.52299 10.1715L0.837746 23.7144C0.41629 24.565 0.851581 25.2634 1.80225 25.2634H26.6606C27.6112 25.2634 28.7373 24.5665 29.1557 23.7144L35.8394 10.1715C36.2593 9.31933 35.8271 8.62097 34.8733 8.62097Z" fill="white"/>
</svg>
